<?xml version="1.0" encoding="UTF-8" standalone="no"?>
<svg
   xmlns:dc="http://purl.org/dc/elements/1.1/"
   xmlns:cc="http://creativecommons.org/ns#"
   xmlns:rdf="http://www.w3.org/1999/02/22-rdf-syntax-ns#"
   xmlns:svg="http://www.w3.org/2000/svg"
   xmlns="http://www.w3.org/2000/svg"
   xmlns:sodipodi="http://sodipodi.sourceforge.net/DTD/sodipodi-0.dtd"
   xmlns:inkscape="http://www.inkscape.org/namespaces/inkscape"
   width="1792"
   height="1792"
   viewBox="0 0 1792 1792"
   preserveAspectRatio="xMinYMid meet"
   version="1.1"
   id="svg4"
   sodipodi:docname="check2.svg"
   inkscape:version="0.92.4 (5da689c313, 2019-01-14)">
  <metadata
     id="metadata10">
    <rdf:RDF>
      <cc:Work
         rdf:about="">
        <dc:format>image/svg+xml</dc:format>
        <dc:type
           rdf:resource="http://purl.org/dc/dcmitype/StillImage" />
        <dc:title></dc:title>
      </cc:Work>
    </rdf:RDF>
  </metadata>
  <defs
     id="defs8" />
  <sodipodi:namedview
     pagecolor="#ffffff"
     bordercolor="#666666"
     borderopacity="1"
     objecttolerance="10"
     gridtolerance="10"
     guidetolerance="10"
     inkscape:pageopacity="0"
     inkscape:pageshadow="2"
     inkscape:window-width="1360"
     inkscape:window-height="1046"
     id="namedview6"
     showgrid="false"
     inkscape:zoom="0.13169643"
     inkscape:cx="-398.64406"
     inkscape:cy="896.00001"
     inkscape:window-x="0"
     inkscape:window-y="0"
     inkscape:window-maximized="0"
     inkscape:current-layer="svg4" />
  <path
     d="m 1554.75,620.3 q 0,34 -23.8,57.8 l -615.4,615.4 -115.6,115.6 q -23.8,23.8 -57.8,23.8 -34,0 -57.8,-23.8 L 568.75,1293.5 261.05,985.8 q -23.8,-23.8 -23.8,-57.8 0,-34 23.8,-57.8 l 115.6,-115.6 q 23.8,-23.8 57.8,-23.8 34,0 57.8,23.8 l 249.9,250.75 557.6,-558.45 q 23.8,-23.8 57.8,-23.8 34,0 57.8,23.8 l 115.6,115.6 q 23.8,23.8 23.8,57.8 z"
     id="path2"
     style="fill:#255c41;fill-opacity:1;stroke-width:0.85000002"
     inkscape:connector-curvature="0" />
</svg>
